<mxfile host="app.diagrams.net" modified="2024-02-04T03:30:18.258Z" agent="Mozilla/5.0 (Windows NT 10.0; Win64; x64) AppleWebKit/537.36 (KHTML, like Gecko) Chrome/86.0.4240.198 Safari/537.36" etag="l9MUd1ryRmudp7nf5lmv" version="23.1.1" type="github">
  <diagram name="/api/uc/login/v2" id="13e1069c-82ec-6db2-03f1-153e76fe0fe0">
    <mxGraphModel dx="1434" dy="773" grid="1" gridSize="10" guides="1" tooltips="1" connect="1" arrows="1" fold="1" page="1" pageScale="1" pageWidth="1100" pageHeight="850" background="none" math="0" shadow="0">
      <root>
        <mxCell id="0" />
        <mxCell id="1" parent="0" />
        <mxCell id="7baba1c4bc27f4b0-5" value="&lt;pre style=&quot;background-color: rgb(255, 255, 255); font-family: &amp;quot;JetBrains Mono&amp;quot;, monospace; font-size: 9.8pt;&quot;&gt;RiskManagementService&lt;/pre&gt;" style="shape=umlLifeline;perimeter=lifelinePerimeter;whiteSpace=wrap;html=1;container=1;collapsible=0;recursiveResize=0;outlineConnect=0;rounded=1;shadow=0;comic=0;labelBackgroundColor=none;strokeWidth=1;fontFamily=Verdana;fontSize=12;align=center;" parent="1" vertex="1">
          <mxGeometry x="360" y="80" width="160" height="2090" as="geometry" />
        </mxCell>
        <mxCell id="50NCEUKgjj1wmTMVywzA-21" value="" style="html=1;points=[[0,0,0,0,5],[0,1,0,0,-5],[1,0,0,0,5],[1,1,0,0,-5]];perimeter=orthogonalPerimeter;outlineConnect=0;targetShapes=umlLifeline;portConstraint=eastwest;newEdgeStyle={&quot;curved&quot;:0,&quot;rounded&quot;:0};" parent="7baba1c4bc27f4b0-5" vertex="1">
          <mxGeometry x="75" y="235" width="10" height="40" as="geometry" />
        </mxCell>
        <mxCell id="7baba1c4bc27f4b0-7" value="&lt;pre style=&quot;background-color: rgb(255, 255, 255); font-family: &amp;quot;JetBrains Mono&amp;quot;, monospace; font-size: 9.8pt;&quot;&gt;AccountService&lt;/pre&gt;" style="shape=umlLifeline;perimeter=lifelinePerimeter;whiteSpace=wrap;html=1;container=1;collapsible=0;recursiveResize=0;outlineConnect=0;rounded=1;shadow=0;comic=0;labelBackgroundColor=none;strokeWidth=1;fontFamily=Verdana;fontSize=12;align=center;" parent="1" vertex="1">
          <mxGeometry x="640" y="80" width="200" height="2170" as="geometry" />
        </mxCell>
        <mxCell id="KPomLaZq1dCTuhymzl-I-24" value="" style="html=1;points=[[0,0,0,0,5],[0,1,0,0,-5],[1,0,0,0,5],[1,1,0,0,-5]];perimeter=orthogonalPerimeter;outlineConnect=0;targetShapes=umlLifeline;portConstraint=eastwest;newEdgeStyle={&quot;curved&quot;:0,&quot;rounded&quot;:0};" vertex="1" parent="7baba1c4bc27f4b0-7">
          <mxGeometry x="95" y="1286" width="10" height="55" as="geometry" />
        </mxCell>
        <mxCell id="KPomLaZq1dCTuhymzl-I-25" value="&lt;pre style=&quot;font-family: &amp;quot;JetBrains Mono&amp;quot;, monospace; font-size: 9.8pt;&quot;&gt;&lt;span style=&quot;background-color: rgb(204, 255, 255);&quot;&gt;loginAccount(实际http自调用&lt;/span&gt;&lt;/pre&gt;&lt;pre style=&quot;font-family: &amp;quot;JetBrains Mono&amp;quot;, monospace; font-size: 9.8pt;&quot;&gt;&lt;span style=&quot;background-color: rgb(204, 255, 255);&quot;&gt;/api/user3/login/v1，并返回用户信息)&lt;/span&gt;&lt;/pre&gt;" style="html=1;verticalAlign=bottom;endArrow=block;curved=0;rounded=0;entryX=0;entryY=0;entryDx=0;entryDy=5;exitX=0.9;exitY=0.366;exitDx=0;exitDy=0;exitPerimeter=0;" edge="1" parent="7baba1c4bc27f4b0-7" target="KPomLaZq1dCTuhymzl-I-24">
          <mxGeometry x="0.5697" y="-1" relative="1" as="geometry">
            <mxPoint x="-486" y="1286.22" as="sourcePoint" />
            <mxPoint as="offset" />
          </mxGeometry>
        </mxCell>
        <mxCell id="KPomLaZq1dCTuhymzl-I-26" value="return" style="html=1;verticalAlign=bottom;endArrow=open;dashed=1;endSize=8;curved=0;rounded=0;exitX=0;exitY=1;exitDx=0;exitDy=-5;entryX=1.1;entryY=0.443;entryDx=0;entryDy=0;entryPerimeter=0;" edge="1" parent="7baba1c4bc27f4b0-7" source="KPomLaZq1dCTuhymzl-I-24">
          <mxGeometry relative="1" as="geometry">
            <mxPoint x="-484" y="1337.81" as="targetPoint" />
          </mxGeometry>
        </mxCell>
        <mxCell id="7baba1c4bc27f4b0-8" value="&lt;pre style=&quot;background-color: rgb(255, 255, 255); font-family: &amp;quot;JetBrains Mono&amp;quot;, monospace; font-size: 9.8pt;&quot;&gt;AuthController&lt;/pre&gt;" style="shape=umlLifeline;perimeter=lifelinePerimeter;whiteSpace=wrap;html=1;container=1;collapsible=0;recursiveResize=0;outlineConnect=0;rounded=1;shadow=0;comic=0;labelBackgroundColor=none;strokeWidth=1;fontFamily=Verdana;fontSize=12;align=center;" parent="1" vertex="1">
          <mxGeometry x="100" y="80" width="100" height="2090" as="geometry" />
        </mxCell>
        <mxCell id="7baba1c4bc27f4b0-9" value="" style="html=1;points=[];perimeter=orthogonalPerimeter;rounded=0;shadow=0;comic=0;labelBackgroundColor=none;strokeWidth=1;fontFamily=Verdana;fontSize=12;align=center;" parent="7baba1c4bc27f4b0-8" vertex="1">
          <mxGeometry x="45" y="100" width="10" height="1700" as="geometry" />
        </mxCell>
        <mxCell id="50NCEUKgjj1wmTMVywzA-2" value="" style="html=1;points=[[0,0,0,0,5],[0,1,0,0,-5],[1,0,0,0,5],[1,1,0,0,-5]];perimeter=orthogonalPerimeter;outlineConnect=0;targetShapes=umlLifeline;portConstraint=eastwest;newEdgeStyle={&quot;curved&quot;:0,&quot;rounded&quot;:0};" parent="7baba1c4bc27f4b0-8" vertex="1">
          <mxGeometry x="50" y="140" width="10" height="40" as="geometry" />
        </mxCell>
        <mxCell id="50NCEUKgjj1wmTMVywzA-3" value="&lt;pre style=&quot;font-family: &amp;quot;JetBrains Mono&amp;quot;, monospace; font-size: 9.8pt;&quot;&gt;1.checkLoginV2Params&lt;/pre&gt;" style="html=1;align=left;spacingLeft=2;endArrow=block;rounded=0;edgeStyle=orthogonalEdgeStyle;curved=0;rounded=0;" parent="7baba1c4bc27f4b0-8" target="50NCEUKgjj1wmTMVywzA-2" edge="1">
          <mxGeometry relative="1" as="geometry">
            <mxPoint x="55" y="120" as="sourcePoint" />
            <Array as="points">
              <mxPoint x="85" y="150" />
            </Array>
          </mxGeometry>
        </mxCell>
        <mxCell id="50NCEUKgjj1wmTMVywzA-22" value="&lt;pre style=&quot;font-family: &amp;quot;JetBrains Mono&amp;quot;, monospace; font-size: 9.8pt;&quot;&gt;2.checkLoginIdInRisk&lt;/pre&gt;&lt;pre style=&quot;font-family: &amp;quot;JetBrains Mono&amp;quot;, monospace; font-size: 9.8pt;&quot;&gt;（nacos配置loginIds）&lt;/pre&gt;" style="html=1;verticalAlign=bottom;endArrow=block;curved=0;rounded=0;entryX=0;entryY=0;entryDx=0;entryDy=5;" parent="1" target="50NCEUKgjj1wmTMVywzA-21" edge="1">
          <mxGeometry x="0.0543" relative="1" as="geometry">
            <mxPoint x="149.5" y="320" as="sourcePoint" />
            <mxPoint as="offset" />
          </mxGeometry>
        </mxCell>
        <mxCell id="50NCEUKgjj1wmTMVywzA-23" value="return" style="html=1;verticalAlign=bottom;endArrow=open;dashed=1;endSize=8;curved=0;rounded=0;exitX=0;exitY=1;exitDx=0;exitDy=-5;" parent="1" source="50NCEUKgjj1wmTMVywzA-21" edge="1">
          <mxGeometry relative="1" as="geometry">
            <mxPoint x="149.5" y="350" as="targetPoint" />
          </mxGeometry>
        </mxCell>
        <mxCell id="50NCEUKgjj1wmTMVywzA-24" value="&lt;pre style=&quot;font-family: &amp;quot;JetBrains Mono&amp;quot;, monospace; font-size: 9.8pt;&quot;&gt;EClientType&lt;/pre&gt;" style="shape=umlFrame;html=1;pointerEvents=0;width=100;height=30;labelBackgroundColor=none;whiteSpace=wrap;" parent="1" vertex="1">
          <mxGeometry x="40" y="384" width="1720" height="1766" as="geometry" />
        </mxCell>
        <mxCell id="50NCEUKgjj1wmTMVywzA-29" value="isWeb" style="text;html=1;align=center;verticalAlign=middle;resizable=0;points=[];autosize=1;strokeColor=none;fillColor=none;" parent="1" vertex="1">
          <mxGeometry x="60" y="462" width="60" height="30" as="geometry" />
        </mxCell>
        <mxCell id="7baba1c4bc27f4b0-3" value="&lt;pre style=&quot;background-color:#ffffff;color:#080808;font-family:&#39;JetBrains Mono&#39;,monospace;font-size:9.8pt;&quot;&gt;UserService&lt;/pre&gt;" style="shape=umlLifeline;perimeter=lifelinePerimeter;whiteSpace=wrap;html=1;container=1;collapsible=0;recursiveResize=0;outlineConnect=0;rounded=1;shadow=0;comic=0;labelBackgroundColor=none;strokeWidth=1;fontFamily=Verdana;fontSize=12;align=center;" parent="1" vertex="1">
          <mxGeometry x="960" y="80" width="160" height="2020" as="geometry" />
        </mxCell>
        <mxCell id="KPomLaZq1dCTuhymzl-I-5" value="" style="html=1;points=[[0,0,0,0,5],[0,1,0,0,-5],[1,0,0,0,5],[1,1,0,0,-5]];perimeter=orthogonalPerimeter;outlineConnect=0;targetShapes=umlLifeline;portConstraint=eastwest;newEdgeStyle={&quot;curved&quot;:0,&quot;rounded&quot;:0};" vertex="1" parent="7baba1c4bc27f4b0-3">
          <mxGeometry x="75" y="611" width="10" height="50" as="geometry" />
        </mxCell>
        <mxCell id="KPomLaZq1dCTuhymzl-I-16" value="" style="html=1;points=[[0,0,0,0,5],[0,1,0,0,-5],[1,0,0,0,5],[1,1,0,0,-5]];perimeter=orthogonalPerimeter;outlineConnect=0;targetShapes=umlLifeline;portConstraint=eastwest;newEdgeStyle={&quot;curved&quot;:0,&quot;rounded&quot;:0};" vertex="1" parent="7baba1c4bc27f4b0-3">
          <mxGeometry x="75" y="990" width="10" height="50" as="geometry" />
        </mxCell>
        <mxCell id="KPomLaZq1dCTuhymzl-I-17" value="&lt;pre style=&quot;color: rgb(8, 8, 8); font-family: &amp;quot;JetBrains Mono&amp;quot;, monospace; font-size: 9.8pt;&quot;&gt;8.getAccountDeviceBindingList,&lt;/pre&gt;&lt;pre style=&quot;color: rgb(8, 8, 8); font-family: &amp;quot;JetBrains Mono&amp;quot;, monospace; font-size: 9.8pt;&quot;&gt;redis &amp;amp; db(&lt;span style=&quot;background-color: rgb(255, 255, 153);&quot;&gt;ac_device_binding&lt;/span&gt;)&lt;/pre&gt;" style="html=1;verticalAlign=bottom;endArrow=block;curved=0;rounded=0;labelBackgroundColor=#FFFFFF;entryX=0;entryY=0;entryDx=0;entryDy=5;entryPerimeter=0;" edge="1" parent="7baba1c4bc27f4b0-3" target="KPomLaZq1dCTuhymzl-I-16">
          <mxGeometry x="0.625" relative="1" as="geometry">
            <mxPoint x="-805" y="995" as="sourcePoint" />
            <mxPoint as="offset" />
            <mxPoint x="70" y="995" as="targetPoint" />
            <Array as="points">
              <mxPoint x="-360" y="995" />
            </Array>
          </mxGeometry>
        </mxCell>
        <mxCell id="KPomLaZq1dCTuhymzl-I-18" value="return" style="html=1;verticalAlign=bottom;endArrow=open;dashed=1;endSize=8;curved=0;rounded=0;exitX=0;exitY=1;exitDx=0;exitDy=-5;" edge="1" parent="7baba1c4bc27f4b0-3" source="KPomLaZq1dCTuhymzl-I-16">
          <mxGeometry relative="1" as="geometry">
            <mxPoint x="-805" y="1035" as="targetPoint" />
          </mxGeometry>
        </mxCell>
        <mxCell id="50NCEUKgjj1wmTMVywzA-30" value="" style="html=1;points=[[0,0,0,0,5],[0,1,0,0,-5],[1,0,0,0,5],[1,1,0,0,-5]];perimeter=orthogonalPerimeter;outlineConnect=0;targetShapes=umlLifeline;portConstraint=eastwest;newEdgeStyle={&quot;curved&quot;:0,&quot;rounded&quot;:0};" parent="1" vertex="1">
          <mxGeometry x="735" y="453" width="10" height="55" as="geometry" />
        </mxCell>
        <mxCell id="50NCEUKgjj1wmTMVywzA-31" value="&lt;pre style=&quot;font-family: &amp;quot;JetBrains Mono&amp;quot;, monospace; font-size: 9.8pt;&quot;&gt;&lt;span style=&quot;background-color: rgb(204, 255, 255);&quot;&gt;3.loginAccount(实际http自调用&lt;/span&gt;&lt;/pre&gt;&lt;pre style=&quot;font-family: &amp;quot;JetBrains Mono&amp;quot;, monospace; font-size: 9.8pt;&quot;&gt;&lt;span style=&quot;background-color: rgb(204, 255, 255);&quot;&gt;/api/user3/login/v1，并返回用户信息)&lt;/span&gt;&lt;/pre&gt;" style="html=1;verticalAlign=bottom;endArrow=block;curved=0;rounded=0;entryX=0;entryY=0;entryDx=0;entryDy=5;exitX=0.9;exitY=0.366;exitDx=0;exitDy=0;exitPerimeter=0;" parent="1" target="50NCEUKgjj1wmTMVywzA-30" edge="1">
          <mxGeometry x="0.5697" y="-1" relative="1" as="geometry">
            <mxPoint x="154" y="453.22" as="sourcePoint" />
            <mxPoint as="offset" />
          </mxGeometry>
        </mxCell>
        <mxCell id="50NCEUKgjj1wmTMVywzA-32" value="return" style="html=1;verticalAlign=bottom;endArrow=open;dashed=1;endSize=8;curved=0;rounded=0;exitX=0;exitY=1;exitDx=0;exitDy=-5;entryX=1.1;entryY=0.443;entryDx=0;entryDy=0;entryPerimeter=0;" parent="1" source="50NCEUKgjj1wmTMVywzA-30" edge="1">
          <mxGeometry relative="1" as="geometry">
            <mxPoint x="156" y="504.80999999999995" as="targetPoint" />
          </mxGeometry>
        </mxCell>
        <mxCell id="50NCEUKgjj1wmTMVywzA-36" value="" style="endArrow=none;dashed=1;html=1;rounded=0;exitX=-0.004;exitY=0.305;exitDx=0;exitDy=0;exitPerimeter=0;strokeColor=default;startArrow=none;startFill=0;endFill=0;" parent="1" edge="1">
          <mxGeometry width="160" relative="1" as="geometry">
            <mxPoint x="36.75999999999999" y="596.15" as="sourcePoint" />
            <mxPoint x="1247" y="596.1500000000001" as="targetPoint" />
          </mxGeometry>
        </mxCell>
        <mxCell id="50NCEUKgjj1wmTMVywzA-37" value="" style="html=1;points=[[0,0,0,0,5],[0,1,0,0,-5],[1,0,0,0,5],[1,1,0,0,-5]];perimeter=orthogonalPerimeter;outlineConnect=0;targetShapes=umlLifeline;portConstraint=eastwest;newEdgeStyle={&quot;curved&quot;:0,&quot;rounded&quot;:0};" parent="1" vertex="1">
          <mxGeometry x="150" y="548" width="10" height="40" as="geometry" />
        </mxCell>
        <mxCell id="50NCEUKgjj1wmTMVywzA-38" value="4. 封装token等信息至userInfo" style="html=1;align=left;spacingLeft=2;endArrow=block;rounded=0;edgeStyle=orthogonalEdgeStyle;curved=0;rounded=0;" parent="1" target="50NCEUKgjj1wmTMVywzA-37" edge="1">
          <mxGeometry relative="1" as="geometry">
            <mxPoint x="155" y="528" as="sourcePoint" />
            <Array as="points">
              <mxPoint x="185" y="558" />
            </Array>
            <mxPoint as="offset" />
          </mxGeometry>
        </mxCell>
        <mxCell id="50NCEUKgjj1wmTMVywzA-39" value="else" style="text;html=1;align=center;verticalAlign=middle;resizable=0;points=[];autosize=1;strokeColor=none;fillColor=none;" parent="1" vertex="1">
          <mxGeometry x="58" y="682" width="50" height="30" as="geometry" />
        </mxCell>
        <mxCell id="7baba1c4bc27f4b0-6" value="&lt;pre style=&quot;background-color:#ffffff;color:#080808;font-family:&#39;JetBrains Mono&#39;,monospace;font-size:9.8pt;&quot;&gt;PushService&lt;/pre&gt;" style="shape=umlLifeline;perimeter=lifelinePerimeter;whiteSpace=wrap;html=1;container=1;collapsible=0;recursiveResize=0;outlineConnect=0;rounded=1;shadow=0;comic=0;labelBackgroundColor=none;strokeWidth=1;fontFamily=Verdana;fontSize=12;align=center;" parent="1" vertex="1">
          <mxGeometry x="1230" y="80" width="160" height="2060" as="geometry" />
        </mxCell>
        <mxCell id="KPomLaZq1dCTuhymzl-I-29" value="" style="html=1;points=[[0,0,0,0,5],[0,1,0,0,-5],[1,0,0,0,5],[1,1,0,0,-5]];perimeter=orthogonalPerimeter;outlineConnect=0;targetShapes=umlLifeline;portConstraint=eastwest;newEdgeStyle={&quot;curved&quot;:0,&quot;rounded&quot;:0};" vertex="1" parent="7baba1c4bc27f4b0-6">
          <mxGeometry x="75" y="1450" width="10" height="40" as="geometry" />
        </mxCell>
        <mxCell id="KPomLaZq1dCTuhymzl-I-6" value="&lt;pre style=&quot;color: rgb(8, 8, 8); font-family: &amp;quot;JetBrains Mono&amp;quot;, monospace; font-size: 9.8pt;&quot;&gt;&lt;span style=&quot;background-color: rgb(102, 255, 102);&quot;&gt;5.isLacAllowed，redis&amp;amp; 实际远程调用&lt;/span&gt;&lt;/pre&gt;&lt;pre style=&quot;color: rgb(8, 8, 8); font-family: &amp;quot;JetBrains Mono&amp;quot;, monospace; font-size: 9.8pt;&quot;&gt;&lt;span style=&quot;background-color: rgb(102, 255, 102);&quot;&gt;vod.lac.client.server.host,&lt;/span&gt;&lt;/pre&gt;&lt;pre style=&quot;color: rgb(8, 8, 8); font-family: &amp;quot;JetBrains Mono&amp;quot;, monospace; font-size: 9.8pt;&quot;&gt;&lt;span style=&quot;background-color: rgb(102, 255, 102);&quot;&gt;/api/lac/check/v1&lt;/span&gt;&lt;/pre&gt;" style="html=1;verticalAlign=bottom;endArrow=block;curved=0;rounded=0;entryX=0;entryY=0;entryDx=0;entryDy=5;labelBackgroundColor=#FFFFFF;" edge="1" parent="1">
          <mxGeometry x="0.625" relative="1" as="geometry">
            <mxPoint x="155" y="700" as="sourcePoint" />
            <mxPoint x="1035" y="700" as="targetPoint" />
            <mxPoint as="offset" />
          </mxGeometry>
        </mxCell>
        <mxCell id="KPomLaZq1dCTuhymzl-I-7" value="return" style="html=1;verticalAlign=bottom;endArrow=open;dashed=1;endSize=8;curved=0;rounded=0;exitX=0;exitY=1;exitDx=0;exitDy=-5;" edge="1" source="KPomLaZq1dCTuhymzl-I-5" parent="1">
          <mxGeometry relative="1" as="geometry">
            <mxPoint x="155" y="736" as="targetPoint" />
          </mxGeometry>
        </mxCell>
        <mxCell id="KPomLaZq1dCTuhymzl-I-10" value="" style="html=1;points=[[0,0,0,0,5],[0,1,0,0,-5],[1,0,0,0,5],[1,1,0,0,-5]];perimeter=orthogonalPerimeter;outlineConnect=0;targetShapes=umlLifeline;portConstraint=eastwest;newEdgeStyle={&quot;curved&quot;:0,&quot;rounded&quot;:0};" vertex="1" parent="1">
          <mxGeometry x="735" y="811" width="10" height="40" as="geometry" />
        </mxCell>
        <mxCell id="KPomLaZq1dCTuhymzl-I-11" value="&lt;pre style=&quot;color: rgb(8, 8, 8); font-family: &amp;quot;JetBrains Mono&amp;quot;, monospace; font-size: 9.8pt;&quot;&gt;&lt;span style=&quot;background-color: rgb(153, 255, 255);&quot;&gt;6. 查询设备信息queryAccountBaseInfoByLoginId&lt;/span&gt;&lt;/pre&gt;&lt;pre style=&quot;color: rgb(8, 8, 8); font-family: &amp;quot;JetBrains Mono&amp;quot;, monospace; font-size: 9.8pt;&quot;&gt;&lt;span style=&quot;background-color: rgb(153, 255, 255);&quot;&gt;实际http自调用/api/user3/queryAccountBaseInfoByLoginId/v1&lt;/span&gt;&lt;/pre&gt;" style="html=1;verticalAlign=bottom;endArrow=block;curved=0;rounded=0;entryX=0;entryY=0;entryDx=0;entryDy=5;exitX=0.9;exitY=0.694;exitDx=0;exitDy=0;exitPerimeter=0;" edge="1" target="KPomLaZq1dCTuhymzl-I-10" parent="1">
          <mxGeometry x="0.5352" y="6" relative="1" as="geometry">
            <mxPoint x="154" y="814.78" as="sourcePoint" />
            <mxPoint as="offset" />
          </mxGeometry>
        </mxCell>
        <mxCell id="KPomLaZq1dCTuhymzl-I-12" value="return" style="html=1;verticalAlign=bottom;endArrow=open;dashed=1;endSize=8;curved=0;rounded=0;exitX=0;exitY=1;exitDx=0;exitDy=-5;entryX=1.3;entryY=0.728;entryDx=0;entryDy=0;entryPerimeter=0;" edge="1" source="KPomLaZq1dCTuhymzl-I-10" parent="1">
          <mxGeometry relative="1" as="geometry">
            <mxPoint x="158" y="844.3600000000001" as="targetPoint" />
          </mxGeometry>
        </mxCell>
        <mxCell id="KPomLaZq1dCTuhymzl-I-13" value="" style="html=1;points=[[0,0,0,0,5],[0,1,0,0,-5],[1,0,0,0,5],[1,1,0,0,-5]];perimeter=orthogonalPerimeter;outlineConnect=0;targetShapes=umlLifeline;portConstraint=eastwest;newEdgeStyle={&quot;curved&quot;:0,&quot;rounded&quot;:0};" vertex="1" parent="1">
          <mxGeometry x="1035" y="953" width="10" height="50" as="geometry" />
        </mxCell>
        <mxCell id="KPomLaZq1dCTuhymzl-I-14" value="&lt;pre style=&quot;color: rgb(8, 8, 8); font-family: &amp;quot;JetBrains Mono&amp;quot;, monospace; font-size: 9.8pt;&quot;&gt;&lt;span style=&quot;background-color: rgb(153, 255, 153);&quot;&gt;7.isDacAllowed，redis &amp;amp; 实际远程调用&lt;br&gt;&lt;/span&gt;&lt;/pre&gt;&lt;pre style=&quot;color: rgb(8, 8, 8); font-family: &amp;quot;JetBrains Mono&amp;quot;, monospace; font-size: 9.8pt;&quot;&gt;&lt;span style=&quot;background-color: rgb(153, 255, 153);&quot;&gt;dac.server.host,api/dac/checkAccount/v1 &amp;amp;&lt;/span&gt;&lt;/pre&gt;&lt;pre style=&quot;color: rgb(8, 8, 8); font-family: &amp;quot;JetBrains Mono&amp;quot;, monospace; font-size: 9.8pt;&quot;&gt;&lt;pre style=&quot;font-family: &amp;quot;JetBrains Mono&amp;quot;, monospace; font-size: 9.8pt;&quot;&gt;&lt;span style=&quot;background-color: rgb(153, 255, 153);&quot;&gt;api/dac/check/v1&lt;/span&gt;&lt;/pre&gt;&lt;/pre&gt;" style="html=1;verticalAlign=bottom;endArrow=block;curved=0;rounded=0;labelBackgroundColor=#FFFFFF;entryX=0;entryY=0;entryDx=0;entryDy=5;entryPerimeter=0;" edge="1" parent="1" target="KPomLaZq1dCTuhymzl-I-13" source="7baba1c4bc27f4b0-9">
          <mxGeometry x="0.625" relative="1" as="geometry">
            <mxPoint x="170" y="960" as="sourcePoint" />
            <mxPoint as="offset" />
            <mxPoint x="1030" y="958" as="targetPoint" />
          </mxGeometry>
        </mxCell>
        <mxCell id="KPomLaZq1dCTuhymzl-I-15" value="return" style="html=1;verticalAlign=bottom;endArrow=open;dashed=1;endSize=8;curved=0;rounded=0;exitX=0;exitY=1;exitDx=0;exitDy=-5;" edge="1" parent="1" source="KPomLaZq1dCTuhymzl-I-13">
          <mxGeometry relative="1" as="geometry">
            <mxPoint x="155" y="998" as="targetPoint" />
          </mxGeometry>
        </mxCell>
        <mxCell id="KPomLaZq1dCTuhymzl-I-19" value="" style="html=1;points=[[0,0,0,0,5],[0,1,0,0,-5],[1,0,0,0,5],[1,1,0,0,-5]];perimeter=orthogonalPerimeter;outlineConnect=0;targetShapes=umlLifeline;portConstraint=eastwest;newEdgeStyle={&quot;curved&quot;:0,&quot;rounded&quot;:0};" vertex="1" parent="1">
          <mxGeometry x="150" y="1170" width="10" height="110" as="geometry" />
        </mxCell>
        <mxCell id="KPomLaZq1dCTuhymzl-I-20" value="9.&amp;nbsp;checkAccountCardBinding" style="html=1;align=left;spacingLeft=2;endArrow=block;rounded=0;edgeStyle=orthogonalEdgeStyle;curved=0;rounded=0;" edge="1" target="KPomLaZq1dCTuhymzl-I-19" parent="1">
          <mxGeometry relative="1" as="geometry">
            <mxPoint x="155" y="1150" as="sourcePoint" />
            <Array as="points">
              <mxPoint x="185" y="1180" />
            </Array>
          </mxGeometry>
        </mxCell>
        <mxCell id="KPomLaZq1dCTuhymzl-I-21" value="" style="html=1;points=[[0,0,0,0,5],[0,1,0,0,-5],[1,0,0,0,5],[1,1,0,0,-5]];perimeter=orthogonalPerimeter;outlineConnect=0;targetShapes=umlLifeline;portConstraint=eastwest;newEdgeStyle={&quot;curved&quot;:0,&quot;rounded&quot;:0};" vertex="1" parent="1">
          <mxGeometry x="155" y="1215" width="10" height="40" as="geometry" />
        </mxCell>
        <mxCell id="KPomLaZq1dCTuhymzl-I-22" value="&lt;pre style=&quot;color: rgb(8, 8, 8); font-family: &amp;quot;JetBrains Mono&amp;quot;, monospace; font-size: 9.8pt;&quot;&gt;&lt;span style=&quot;background-color: rgb(255, 255, 102);&quot;&gt;store db (ac_device_binding)&lt;/span&gt;&lt;/pre&gt;" style="html=1;align=left;spacingLeft=2;endArrow=block;rounded=0;edgeStyle=orthogonalEdgeStyle;curved=0;rounded=0;" edge="1" target="KPomLaZq1dCTuhymzl-I-21" parent="1">
          <mxGeometry relative="1" as="geometry">
            <mxPoint x="160" y="1195" as="sourcePoint" />
            <Array as="points">
              <mxPoint x="190" y="1225" />
            </Array>
          </mxGeometry>
        </mxCell>
        <mxCell id="KPomLaZq1dCTuhymzl-I-23" value="&lt;pre style=&quot;background-color:#ffffff;color:#080808;font-family:&#39;Courier New&#39;,monospace;font-size:9.8pt;&quot;&gt;账号卡&lt;/pre&gt;" style="shape=umlFrame;whiteSpace=wrap;html=1;pointerEvents=0;" vertex="1" parent="1">
          <mxGeometry x="80" y="1015" width="1030" height="275" as="geometry" />
        </mxCell>
        <mxCell id="KPomLaZq1dCTuhymzl-I-27" value="" style="html=1;points=[[0,0,0,0,5],[0,1,0,0,-5],[1,0,0,0,5],[1,1,0,0,-5]];perimeter=orthogonalPerimeter;outlineConnect=0;targetShapes=umlLifeline;portConstraint=eastwest;newEdgeStyle={&quot;curved&quot;:0,&quot;rounded&quot;:0};" vertex="1" parent="1">
          <mxGeometry x="150" y="1336" width="10" height="120" as="geometry" />
        </mxCell>
        <mxCell id="KPomLaZq1dCTuhymzl-I-28" value="&lt;pre style=&quot;border-color: var(--border-color); text-align: center; font-family: &amp;quot;JetBrains Mono&amp;quot;, monospace; font-size: 9.8pt;&quot;&gt;10.loginAccount&lt;/pre&gt;" style="html=1;align=left;spacingLeft=2;endArrow=block;rounded=0;edgeStyle=orthogonalEdgeStyle;curved=0;rounded=0;" edge="1" target="KPomLaZq1dCTuhymzl-I-27" parent="1">
          <mxGeometry relative="1" as="geometry">
            <mxPoint x="155" y="1316" as="sourcePoint" />
            <Array as="points">
              <mxPoint x="185" y="1346" />
            </Array>
          </mxGeometry>
        </mxCell>
        <mxCell id="KPomLaZq1dCTuhymzl-I-30" value="&lt;pre style=&quot;color: rgb(8, 8, 8); font-family: &amp;quot;JetBrains Mono&amp;quot;, monospace; font-size: 9.8pt;&quot;&gt;&lt;pre style=&quot;font-family: &amp;quot;JetBrains Mono&amp;quot;, monospace; font-size: 9.8pt;&quot;&gt;&lt;span style=&quot;background-color: rgb(102, 255, 102);&quot;&gt;&lt;span style=&quot;font-size: 9.8pt;&quot;&gt;11. pushTask,远程调用&lt;/span&gt;&lt;br&gt;&lt;/span&gt;&lt;/pre&gt;&lt;pre style=&quot;font-family: &amp;quot;JetBrains Mono&amp;quot;, monospace; font-size: 9.8pt;&quot;&gt;&lt;span style=&quot;background-color: rgb(102, 255, 102);&quot;&gt;mfc.push.api.url /api/pushTask/v1&lt;/span&gt;&lt;/pre&gt;&lt;/pre&gt;" style="html=1;verticalAlign=bottom;endArrow=block;curved=0;rounded=0;entryX=0;entryY=0;entryDx=0;entryDy=5;" edge="1" target="KPomLaZq1dCTuhymzl-I-29" parent="1">
          <mxGeometry x="0.8017" relative="1" as="geometry">
            <mxPoint x="155" y="1536" as="sourcePoint" />
            <mxPoint as="offset" />
          </mxGeometry>
        </mxCell>
        <mxCell id="KPomLaZq1dCTuhymzl-I-31" value="return" style="html=1;verticalAlign=bottom;endArrow=open;dashed=1;endSize=8;curved=0;rounded=0;exitX=0;exitY=1;exitDx=0;exitDy=-5;entryX=1.2;entryY=0.791;entryDx=0;entryDy=0;entryPerimeter=0;" edge="1" source="KPomLaZq1dCTuhymzl-I-29" parent="1">
          <mxGeometry relative="1" as="geometry">
            <mxPoint x="157" y="1565.6999999999998" as="targetPoint" />
          </mxGeometry>
        </mxCell>
        <mxCell id="KPomLaZq1dCTuhymzl-I-32" value="扫码登录getIsScanCode" style="shape=umlFrame;whiteSpace=wrap;html=1;pointerEvents=0;" vertex="1" parent="1">
          <mxGeometry x="80" y="1470" width="1260" height="130" as="geometry" />
        </mxCell>
        <mxCell id="KPomLaZq1dCTuhymzl-I-35" value="&lt;pre style=&quot;background-color:#ffffff;color:#080808;font-family:&#39;JetBrains Mono&#39;,monospace;font-size:9.8pt;&quot;&gt;PushService&lt;/pre&gt;" style="shape=umlLifeline;perimeter=lifelinePerimeter;whiteSpace=wrap;html=1;container=1;collapsible=0;recursiveResize=0;outlineConnect=0;rounded=1;shadow=0;comic=0;labelBackgroundColor=none;strokeWidth=1;fontFamily=Verdana;fontSize=12;align=center;" vertex="1" parent="1">
          <mxGeometry x="1520" y="80" width="160" height="2060" as="geometry" />
        </mxCell>
        <mxCell id="KPomLaZq1dCTuhymzl-I-37" value="" style="html=1;points=[[0,0,0,0,5],[0,1,0,0,-5],[1,0,0,0,5],[1,1,0,0,-5]];perimeter=orthogonalPerimeter;outlineConnect=0;targetShapes=umlLifeline;portConstraint=eastwest;newEdgeStyle={&quot;curved&quot;:0,&quot;rounded&quot;:0};" vertex="1" parent="KPomLaZq1dCTuhymzl-I-35">
          <mxGeometry x="75" y="1580" width="10" height="40" as="geometry" />
        </mxCell>
        <mxCell id="KPomLaZq1dCTuhymzl-I-38" value="dispatch" style="html=1;verticalAlign=bottom;endArrow=block;curved=0;rounded=0;entryX=0;entryY=0;entryDx=0;entryDy=5;" edge="1" target="KPomLaZq1dCTuhymzl-I-37" parent="1" source="7baba1c4bc27f4b0-9">
          <mxGeometry relative="1" as="geometry">
            <mxPoint x="1525" y="1665" as="sourcePoint" />
          </mxGeometry>
        </mxCell>
        <mxCell id="KPomLaZq1dCTuhymzl-I-39" value="return" style="html=1;verticalAlign=bottom;endArrow=open;dashed=1;endSize=8;curved=0;rounded=0;exitX=0;exitY=1;exitDx=0;exitDy=-5;" edge="1" source="KPomLaZq1dCTuhymzl-I-37" parent="1" target="7baba1c4bc27f4b0-9">
          <mxGeometry relative="1" as="geometry">
            <mxPoint x="1525" y="1735" as="targetPoint" />
          </mxGeometry>
        </mxCell>
      </root>
    </mxGraphModel>
  </diagram>
</mxfile>
